<svg id="visual" viewBox="0 0 900 600" width="900" height="600" xmlns="http://www.w3.org/2000/svg" xmlns:xlink="http://www.w3.org/1999/xlink" version="1.1"><rect x="0" y="0" width="900" height="600" fill="#2E294E"></rect><path d="M0 377L21.5 387.2C43 397.3 86 417.7 128.8 417.2C171.7 416.7 214.3 395.3 257.2 393.2C300 391 343 408 385.8 413.5C428.7 419 471.3 413 514.2 401.3C557 389.7 600 372.3 642.8 362.8C685.7 353.3 728.3 351.7 771.2 351.8C814 352 857 354 878.5 355L900 356L900 601L878.5 601C857 601 814 601 771.2 601C728.3 601 685.7 601 642.8 601C600 601 557 601 514.2 601C471.3 601 428.7 601 385.8 601C343 601 300 601 257.2 601C214.3 601 171.7 601 128.8 601C86 601 43 601 21.5 601L0 601Z" fill="#d499b9"></path><path d="M0 454L21.5 448.7C43 443.3 86 432.7 128.8 428.7C171.7 424.7 214.3 427.3 257.2 434.2C300 441 343 452 385.8 446.5C428.7 441 471.3 419 514.2 419.2C557 419.3 600 441.7 642.8 449.8C685.7 458 728.3 452 771.2 452.5C814 453 857 460 878.5 463.5L900 467L900 601L878.5 601C857 601 814 601 771.2 601C728.3 601 685.7 601 642.8 601C600 601 557 601 514.2 601C471.3 601 428.7 601 385.8 601C343 601 300 601 257.2 601C214.3 601 171.7 601 128.8 601C86 601 43 601 21.5 601L0 601Z" fill="#c687b1"></path><path d="M0 459L21.5 459.8C43 460.7 86 462.3 128.8 460.7C171.7 459 214.3 454 257.2 459.2C300 464.3 343 479.7 385.8 479.7C428.7 479.7 471.3 464.3 514.2 463.5C557 462.7 600 476.3 642.8 485.3C685.7 494.3 728.3 498.7 771.2 491.5C814 484.3 857 465.7 878.5 456.3L900 447L900 601L878.5 601C857 601 814 601 771.2 601C728.3 601 685.7 601 642.8 601C600 601 557 601 514.2 601C471.3 601 428.7 601 385.8 601C343 601 300 601 257.2 601C214.3 601 171.7 601 128.8 601C86 601 43 601 21.5 601L0 601Z" fill="#b675ab"></path><path d="M0 517L21.5 513.8C43 510.7 86 504.3 128.8 498.8C171.7 493.3 214.3 488.7 257.2 493.7C300 498.7 343 513.3 385.8 521.8C428.7 530.3 471.3 532.7 514.2 532.8C557 533 600 531 642.8 530.7C685.7 530.3 728.3 531.7 771.2 528.5C814 525.3 857 517.7 878.5 513.8L900 510L900 601L878.5 601C857 601 814 601 771.2 601C728.3 601 685.7 601 642.8 601C600 601 557 601 514.2 601C471.3 601 428.7 601 385.8 601C343 601 300 601 257.2 601C214.3 601 171.7 601 128.8 601C86 601 43 601 21.5 601L0 601Z" fill="#a464a6"></path><path d="M0 536L21.5 540.8C43 545.7 86 555.3 128.8 559C171.7 562.7 214.3 560.3 257.2 557C300 553.7 343 549.3 385.8 548.7C428.7 548 471.3 551 514.2 549.2C557 547.3 600 540.7 642.8 542.8C685.7 545 728.3 556 771.2 555.8C814 555.7 857 544.3 878.5 538.7L900 533L900 601L878.5 601C857 601 814 601 771.2 601C728.3 601 685.7 601 642.8 601C600 601 557 601 514.2 601C471.3 601 428.7 601 385.8 601C343 601 300 601 257.2 601C214.3 601 171.7 601 128.8 601C86 601 43 601 21.5 601L0 601Z" fill="#9055a2"></path></svg>