<svg id="visual" viewBox="0 0 960 540" width="960" height="540" xmlns="http://www.w3.org/2000/svg" xmlns:xlink="http://www.w3.org/1999/xlink" version="1.1"><path d="M0 158L87 152L175 163L262 244L349 228L436 136L524 147L611 109L698 190L785 260L873 93L960 163L960 0L873 0L785 0L698 0L611 0L524 0L436 0L349 0L262 0L175 0L87 0L0 0Z" fill="#011638"></path><path d="M0 287L87 293L175 347L262 336L349 314L436 320L524 368L611 260L698 309L785 411L873 352L960 293L960 161L873 91L785 258L698 188L611 107L524 145L436 134L349 226L262 242L175 161L87 150L0 156Z" fill="#212654"></path><path d="M0 368L87 374L175 379L262 390L349 395L436 401L524 411L611 303L698 352L785 444L873 438L960 384L960 291L873 350L785 409L698 307L611 258L524 366L436 318L349 312L262 334L175 345L87 291L0 285Z" fill="#433670"></path><path d="M0 476L87 444L175 482L262 471L349 492L436 476L524 455L611 422L698 465L785 487L873 476L960 460L960 382L873 436L785 442L698 350L611 301L524 409L436 399L349 393L262 388L175 377L87 372L0 366Z" fill="#68468a"></path><path d="M0 541L87 541L175 541L262 541L349 541L436 541L524 541L611 541L698 541L785 541L873 541L960 541L960 458L873 474L785 485L698 463L611 420L524 453L436 474L349 490L262 469L175 480L87 442L0 474Z" fill="#9055a2"></path></svg>