<svg id="visual" viewBox="0 0 960 540" width="960" height="540" xmlns="http://www.w3.org/2000/svg" xmlns:xlink="http://www.w3.org/1999/xlink" version="1.1"><path d="M0 168L26.7 164.5C53.3 161 106.7 154 160 150.5C213.3 147 266.7 147 320 158.7C373.3 170.3 426.7 193.7 480 185.5C533.3 177.3 586.7 137.7 640 108C693.3 78.3 746.7 58.7 800 53.3C853.3 48 906.7 57 933.3 61.5L960 66L960 0L933.3 0C906.7 0 853.3 0 800 0C746.7 0 693.3 0 640 0C586.7 0 533.3 0 480 0C426.7 0 373.3 0 320 0C266.7 0 213.3 0 160 0C106.7 0 53.3 0 26.7 0L0 0Z" fill="#011638"></path><path d="M0 201L26.7 203.7C53.3 206.3 106.7 211.7 160 223.3C213.3 235 266.7 253 320 253.8C373.3 254.7 426.7 238.3 480 226.7C533.3 215 586.7 208 640 204.5C693.3 201 746.7 201 800 201C853.3 201 906.7 201 933.3 201L960 201L960 64L933.3 59.5C906.7 55 853.3 46 800 51.3C746.7 56.7 693.3 76.3 640 106C586.7 135.7 533.3 175.3 480 183.5C426.7 191.7 373.3 168.3 320 156.7C266.7 145 213.3 145 160 148.5C106.7 152 53.3 159 26.7 162.5L0 166Z" fill="#352f56"></path><path d="M0 222L26.7 226.5C53.3 231 106.7 240 160 250C213.3 260 266.7 271 320 270.2C373.3 269.3 426.7 256.7 480 246.7C533.3 236.7 586.7 229.3 640 222.2C693.3 215 746.7 208 800 205.3C853.3 202.7 906.7 204.3 933.3 205.2L960 206L960 199L933.3 199C906.7 199 853.3 199 800 199C746.7 199 693.3 199 640 202.5C586.7 206 533.3 213 480 224.7C426.7 236.3 373.3 252.7 320 251.8C266.7 251 213.3 233 160 221.3C106.7 209.7 53.3 204.3 26.7 201.7L0 199Z" fill="#634b74"></path><path d="M0 260L26.7 260C53.3 260 106.7 260 160 263.7C213.3 267.3 266.7 274.7 320 272.8C373.3 271 426.7 260 480 258.2C533.3 256.3 586.7 263.7 640 262.8C693.3 262 746.7 253 800 252.2C853.3 251.3 906.7 258.7 933.3 262.3L960 266L960 204L933.3 203.2C906.7 202.3 853.3 200.7 800 203.3C746.7 206 693.3 213 640 220.2C586.7 227.3 533.3 234.7 480 244.7C426.7 254.7 373.3 267.3 320 268.2C266.7 269 213.3 258 160 248C106.7 238 53.3 229 26.7 224.5L0 220Z" fill="#916a91"></path><path d="M0 298L26.7 299.8C53.3 301.7 106.7 305.3 160 306.2C213.3 307 266.7 305 320 299.5C373.3 294 426.7 285 480 283.3C533.3 281.7 586.7 287.3 640 289.2C693.3 291 746.7 289 800 284.5C853.3 280 906.7 273 933.3 269.5L960 266L960 264L933.3 260.3C906.7 256.7 853.3 249.3 800 250.2C746.7 251 693.3 260 640 260.8C586.7 261.7 533.3 254.3 480 256.2C426.7 258 373.3 269 320 270.8C266.7 272.7 213.3 265.3 160 261.7C106.7 258 53.3 258 26.7 258L0 258Z" fill="#c18bae"></path><path d="M0 352L26.7 352.8C53.3 353.7 106.7 355.3 160 355.3C213.3 355.3 266.7 353.7 320 351C373.3 348.3 426.7 344.7 480 345.5C533.3 346.3 586.7 351.7 640 346.3C693.3 341 746.7 325 800 317.8C853.3 310.7 906.7 312.3 933.3 313.2L960 314L960 264L933.3 267.5C906.7 271 853.3 278 800 282.5C746.7 287 693.3 289 640 287.2C586.7 285.3 533.3 279.7 480 281.3C426.7 283 373.3 292 320 297.5C266.7 303 213.3 305 160 304.2C106.7 303.3 53.3 299.7 26.7 297.8L0 296Z" fill="#d499b9"></path><path d="M0 384L26.7 379.5C53.3 375 106.7 366 160 365.2C213.3 364.3 266.7 371.7 320 371.7C373.3 371.7 426.7 364.3 480 362.5C533.3 360.7 586.7 364.3 640 358.2C693.3 352 746.7 336 800 338.7C853.3 341.3 906.7 362.7 933.3 373.3L960 384L960 312L933.3 311.2C906.7 310.3 853.3 308.7 800 315.8C746.7 323 693.3 339 640 344.3C586.7 349.7 533.3 344.3 480 343.5C426.7 342.7 373.3 346.3 320 349C266.7 351.7 213.3 353.3 160 353.3C106.7 353.3 53.3 351.7 26.7 350.8L0 350Z" fill="#d499b9"></path><path d="M0 433L26.7 421.3C53.3 409.7 106.7 386.3 160 378.2C213.3 370 266.7 377 320 383.3C373.3 389.7 426.7 395.3 480 396.3C533.3 397.3 586.7 393.7 640 387.3C693.3 381 746.7 372 800 375.5C853.3 379 906.7 395 933.3 403L960 411L960 382L933.3 371.3C906.7 360.7 853.3 339.3 800 336.7C746.7 334 693.3 350 640 356.2C586.7 362.3 533.3 358.7 480 360.5C426.7 362.3 373.3 369.7 320 369.7C266.7 369.7 213.3 362.3 160 363.2C106.7 364 53.3 373 26.7 377.5L0 382Z" fill="#c18bae"></path><path d="M0 471L26.7 467.3C53.3 463.7 106.7 456.3 160 455.3C213.3 454.3 266.7 459.7 320 461.5C373.3 463.3 426.7 461.7 480 455.5C533.3 449.3 586.7 438.7 640 428.8C693.3 419 746.7 410 800 407.2C853.3 404.3 906.7 407.7 933.3 409.3L960 411L960 409L933.3 401C906.7 393 853.3 377 800 373.5C746.7 370 693.3 379 640 385.3C586.7 391.7 533.3 395.3 480 394.3C426.7 393.3 373.3 387.7 320 381.3C266.7 375 213.3 368 160 376.2C106.7 384.3 53.3 407.7 26.7 419.3L0 431Z" fill="#916a91"></path><path d="M0 509L26.7 502.7C53.3 496.3 106.7 483.7 160 477.3C213.3 471 266.7 471 320 469.2C373.3 467.3 426.7 463.7 480 470.8C533.3 478 586.7 496 640 497.8C693.3 499.7 746.7 485.3 800 486.2C853.3 487 906.7 503 933.3 511L960 519L960 409L933.3 407.3C906.7 405.7 853.3 402.3 800 405.2C746.7 408 693.3 417 640 426.8C586.7 436.7 533.3 447.3 480 453.5C426.7 459.7 373.3 461.3 320 459.5C266.7 457.7 213.3 452.3 160 453.3C106.7 454.3 53.3 461.7 26.7 465.3L0 469Z" fill="#634b74"></path><path d="M0 525L26.7 525C53.3 525 106.7 525 160 525.8C213.3 526.7 266.7 528.3 320 525.7C373.3 523 426.7 516 480 517C533.3 518 586.7 527 640 526C693.3 525 746.7 514 800 514.8C853.3 515.7 906.7 528.3 933.3 534.7L960 541L960 517L933.3 509C906.7 501 853.3 485 800 484.2C746.7 483.3 693.3 497.7 640 495.8C586.7 494 533.3 476 480 468.8C426.7 461.7 373.3 465.3 320 467.2C266.7 469 213.3 469 160 475.3C106.7 481.7 53.3 494.3 26.7 500.7L0 507Z" fill="#352f56"></path><path d="M0 541L26.7 541C53.3 541 106.7 541 160 541C213.3 541 266.7 541 320 541C373.3 541 426.7 541 480 541C533.3 541 586.7 541 640 541C693.3 541 746.7 541 800 541C853.3 541 906.7 541 933.3 541L960 541L960 539L933.3 532.7C906.7 526.3 853.3 513.7 800 512.8C746.7 512 693.3 523 640 524C586.7 525 533.3 516 480 515C426.7 514 373.3 521 320 523.7C266.7 526.3 213.3 524.7 160 523.8C106.7 523 53.3 523 26.7 523L0 523Z" fill="#011638"></path></svg>